<svg width="24" height="22" viewBox="0 0 24 22" fill="none" xmlns="http://www.w3.org/2000/svg">
<path fill-rule="evenodd" clip-rule="evenodd" d="M16.7986 5.69506C16.3753 5.38156 15.7627 5.45306 15.4301 5.85181L8.54887 14.1091L5.25309 10.2619C4.91366 9.86864 4.30112 9.80448 3.88171 10.1226C3.46133 10.4406 3.39598 11.0181 3.73248 11.4114L7.79881 16.1579C7.98511 16.3742 8.26406 16.4998 8.5596 16.4998H8.56643C8.86294 16.498 9.14385 16.3687 9.32722 16.1478L16.9654 6.98114C17.298 6.58331 17.2238 6.00673 16.7986 5.69506ZM21.6754 5.69506C21.2511 5.38156 20.6396 5.45306 20.307 5.85181L13.4257 14.1091L12.8366 13.4226L11.6028 14.9048L12.6757 16.1579C12.862 16.3742 13.1409 16.4998 13.4365 16.4998H13.4433C13.7398 16.498 14.0207 16.3687 14.2041 16.1478L21.8422 6.98114C22.1748 6.58331 22.1007 6.00673 21.6754 5.69506ZM10.3257 10.4907L9.08992 11.972L8.61004 11.4119C8.27256 11.0178 8.33791 10.4403 8.75829 10.1222C9.17868 9.80502 9.79219 9.86827 10.1297 10.2624L10.3257 10.4907Z" fill="#231F20"/>
<mask id="mask0_1093_4202" style="mask-type:alpha" maskUnits="userSpaceOnUse" x="3" y="5" width="20" height="12">
<path fill-rule="evenodd" clip-rule="evenodd" d="M16.7986 5.69506C16.3753 5.38156 15.7627 5.45306 15.4301 5.85181L8.54887 14.1091L5.25309 10.2619C4.91366 9.86864 4.30112 9.80448 3.88171 10.1226C3.46133 10.4406 3.39598 11.0181 3.73248 11.4114L7.79881 16.1579C7.98511 16.3742 8.26406 16.4998 8.5596 16.4998H8.56643C8.86294 16.498 9.14385 16.3687 9.32722 16.1478L16.9654 6.98114C17.298 6.58331 17.2238 6.00673 16.7986 5.69506ZM21.6754 5.69506C21.2511 5.38156 20.6396 5.45306 20.307 5.85181L13.4257 14.1091L12.8366 13.4226L11.6028 14.9048L12.6757 16.1579C12.862 16.3742 13.1409 16.4998 13.4365 16.4998H13.4433C13.7398 16.498 14.0207 16.3687 14.2041 16.1478L21.8422 6.98114C22.1748 6.58331 22.1007 6.00673 21.6754 5.69506ZM10.3257 10.4907L9.08992 11.972L8.61004 11.4119C8.27256 11.0178 8.33791 10.4403 8.75829 10.1222C9.17868 9.80502 9.79219 9.86827 10.1297 10.2624L10.3257 10.4907Z" fill="white"/>
</mask>
<g mask="url(#mask0_1093_4202)">
<rect x="0.591797" width="23.4089" height="22" fill="#B7BDCB"/>
</g>
</svg>
