<svg width="19" height="18" viewBox="0 0 19 18" fill="none" xmlns="http://www.w3.org/2000/svg">
<path d="M8.70825 1.5H7.12492C3.16659 1.5 1.58325 3 1.58325 6.75V11.25C1.58325 15 3.16659 16.5 7.12492 16.5H11.8749C15.8333 16.5 17.4166 15 17.4166 11.25V9.75" stroke="#4F4F4F" stroke-width="1.5" stroke-linecap="round" stroke-linejoin="round"/>
<path d="M12.6982 2.26495L6.4599 8.17495C6.2224 8.39995 5.9849 8.84245 5.9374 9.16495L5.59699 11.4224C5.47032 12.2399 6.0799 12.8099 6.94282 12.6974L9.32574 12.3749C9.65824 12.3299 10.1253 12.1049 10.3707 11.8799L16.6091 5.96995C17.6857 4.94995 18.1924 3.76495 16.6091 2.26495C15.0257 0.764945 13.7749 1.24495 12.6982 2.26495Z" stroke="#4F4F4F" stroke-width="1.5" stroke-miterlimit="10" stroke-linecap="round" stroke-linejoin="round"/>
<path d="M11.8037 3.11255C12.3341 4.90505 13.8145 6.30755 15.7145 6.81755" stroke="#4F4F4F" stroke-width="1.5" stroke-miterlimit="10" stroke-linecap="round" stroke-linejoin="round"/>
</svg>
