<svg width="109" height="109" viewBox="0 0 109 109" fill="none" xmlns="http://www.w3.org/2000/svg">
<path d="M50.2852 63.1353H100.793V70.3508H50.2852V63.1353Z" fill="#5549C1"/>
<path d="M52.0889 70.3508V102.82C52.0889 103.777 52.469 104.695 53.1455 105.371C53.8221 106.048 54.7398 106.428 55.6966 106.428H95.3816C96.3385 106.428 97.2561 106.048 97.9327 105.371C98.6093 104.695 98.9894 103.777 98.9894 102.82V70.3508H52.0889Z" fill="#6A59D1"/>
<path d="M75.6437 33.9754L70.1275 30.6657V21.6464H61.1082V30.6657L55.592 33.9754C54.5236 34.6165 53.6393 35.5233 53.0254 36.6076C52.4115 37.6919 52.0889 38.9166 52.0889 40.1627V63.1353H79.1469V40.1627C79.1469 38.9166 78.8242 37.6919 78.2103 36.6076C77.5964 35.5233 76.7122 34.6165 75.6437 33.9754Z" fill="#6A59D1"/>
<path d="M61.1084 21.6464H70.1277V30.6657H61.1084V21.6464Z" fill="#FF9A83"/>
<path d="M96.103 41.1281L91.7737 37.8812V27.058H84.5582V34.2734L78.5546 43.2789C77.7644 44.4642 77.3428 45.8568 77.3428 47.2813V63.1353H98.9892V46.9005C98.9892 45.7803 98.7284 44.6756 98.2274 43.6736C97.7265 42.6717 96.9991 41.8002 96.103 41.1281Z" fill="#FF8661"/>
<path d="M97.2203 36.4311L95.7064 28.8619H77.3428V25.2541H97.1853C97.6023 25.2541 98.0064 25.3986 98.3289 25.663C98.6514 25.9274 98.8724 26.2953 98.9541 26.7042L100.758 35.7236L97.2203 36.4311Z" fill="#E56B53"/>
<path d="M88.1663 54.116C90.1588 54.116 91.7741 52.5007 91.7741 50.5082C91.7741 48.5157 90.1588 46.9005 88.1663 46.9005C86.1738 46.9005 84.5586 48.5157 84.5586 50.5082C84.5586 52.5007 86.1738 54.116 88.1663 54.116Z" fill="#6A59D1"/>
<path d="M68.3232 39.685H71.931V57.7237H68.3232V39.685Z" fill="#9090F4"/>
<path d="M55.696 0L25.0303 91.9971H34.0496L64.7153 0H55.696Z" fill="#8C8C8C"/>
<path d="M1.58008 95.6049V99.2126H59.3038V95.6049C59.3038 94.648 58.9237 93.7304 58.2471 93.0538C57.5705 92.3772 56.6529 91.9971 55.696 91.9971H5.18781C4.23098 91.9971 3.31334 92.3772 2.63676 93.0538C1.96018 93.7304 1.58008 94.648 1.58008 95.6049Z" fill="#353535"/>
<path d="M3.38379 99.2126H6.99152V108.232H3.38379V99.2126Z" fill="#8C8C8C"/>
<path d="M10.5996 99.2126H14.2073V108.232H10.5996V99.2126Z" fill="#8C8C8C"/>
<path d="M17.8154 99.2126H21.4232V108.232H17.8154V99.2126Z" fill="#8C8C8C"/>
<path d="M25.0303 99.2126H28.638V108.232H25.0303V99.2126Z" fill="#8C8C8C"/>
<path d="M32.2461 99.2126H35.8538V108.232H32.2461V99.2126Z" fill="#8C8C8C"/>
<path d="M39.4619 99.2126H43.0696V108.232H39.4619V99.2126Z" fill="#8C8C8C"/>
<path d="M46.6768 99.2126H50.2845V108.232H46.6768V99.2126Z" fill="#8C8C8C"/>
<path d="M37.9965 1.80386H38.4603C39.8451 1.80386 41.2026 2.18949 42.3806 2.91755C43.5587 3.6456 44.5107 4.6873 45.13 5.92594C45.6146 6.89523 45.8822 7.9585 45.914 9.04173C45.9458 10.125 45.7412 11.2021 45.3143 12.1982L30.1002 47.6978C29.4652 49.1793 28.5227 50.5089 27.3351 51.5986C26.1475 52.6883 24.7418 53.5131 23.2113 54.0185C21.6807 54.5239 20.0603 54.6982 18.4573 54.5299C16.8543 54.3617 15.3053 53.8547 13.9131 53.0425H13.9131C12.5656 52.2565 11.3942 51.2017 10.4717 49.9438C9.54919 48.6858 8.89528 47.2515 8.55063 45.7301C8.20597 44.2086 8.17794 42.6326 8.46827 41.0999C8.7586 39.5671 9.36108 38.1105 10.2383 36.8205L31.8302 5.06768C32.514 4.0621 33.4333 3.23901 34.5081 2.67013C35.5829 2.10126 36.7805 1.80386 37.9965 1.80386Z" fill="#FF8661"/>
<path d="M0 74.9049L32.4796 15.3702L35.6472 17.0983L3.16759 76.633L0 74.9049Z" fill="#E56B53"/>
<path d="M53.8926 99.2126H57.5003V108.232H53.8926V99.2126Z" fill="#8C8C8C"/>
<path d="M97.1852 3.60773C97.134 3.60792 97.0845 3.62557 97.0447 3.65778C97.0049 3.68999 96.9774 3.73481 96.9666 3.78483C96.5903 5.44959 95.75 6.97364 94.543 8.18034C93.336 9.38703 91.8117 10.2269 90.1468 10.6027C90.0968 10.6135 90.052 10.6411 90.0198 10.6809C89.9876 10.7206 89.9699 10.7702 89.9697 10.8213V10.8232C89.9699 10.8743 89.9876 10.9239 90.0198 10.9637C90.052 11.0034 90.0968 11.031 90.1468 11.0418C91.8116 11.418 93.3356 12.2584 94.5423 13.4654C95.749 14.6724 96.5889 16.1967 96.9647 17.8616C96.9755 17.9116 97.0031 17.9564 97.0428 17.9886C97.0826 18.0208 97.1321 18.0385 97.1833 18.0386H97.1871C97.2382 18.0385 97.2878 18.0208 97.3276 17.9886C97.3673 17.9564 97.3949 17.9116 97.4057 17.8616C97.7815 16.1967 98.6214 14.6724 99.8281 13.4654C101.035 12.2584 102.559 11.418 104.224 11.0418C104.274 11.031 104.318 11.0034 104.351 10.9637C104.383 10.9239 104.4 10.8743 104.401 10.8232V10.8213C104.4 10.7702 104.383 10.7206 104.351 10.6809C104.318 10.6411 104.274 10.6135 104.224 10.6027C102.559 10.2269 101.034 9.38703 99.8274 8.18034C98.6204 6.97364 97.78 5.44959 97.4038 3.78483C97.393 3.73481 97.3654 3.68999 97.3257 3.65778C97.2859 3.62557 97.2364 3.60792 97.1852 3.60773Z" fill="#FCDCC8"/>
<path d="M10.5993 3.60773C10.5481 3.60792 10.4985 3.62557 10.4588 3.65778C10.419 3.68999 10.3914 3.73481 10.3807 3.78483C10.0044 5.44959 9.16406 6.97364 7.95704 8.18034C6.75002 9.38703 5.22574 10.2269 3.56087 10.6027C3.51086 10.6135 3.46604 10.6411 3.43383 10.6809C3.40163 10.7206 3.38397 10.7702 3.38379 10.8213V10.8232C3.38397 10.8743 3.40163 10.9239 3.43384 10.9637C3.46604 11.0034 3.51087 11.031 3.56088 11.0418C5.22565 11.418 6.7497 12.2584 7.95639 13.4654C9.16308 14.6724 10.003 16.1967 10.3788 17.8616C10.3896 17.9116 10.4171 17.9564 10.4569 17.9886C10.4966 18.0208 10.5462 18.0385 10.5974 18.0386H10.6011C10.6523 18.0385 10.7019 18.0208 10.7416 17.9886C10.7814 17.9564 10.8089 17.9116 10.8197 17.8616C11.1955 16.1967 12.0354 14.6724 13.2421 13.4654C14.4488 12.2584 15.9729 11.418 17.6376 11.0418C17.6876 11.031 17.7325 11.0034 17.7647 10.9637C17.7969 10.9239 17.8145 10.8743 17.8147 10.8232V10.8213C17.8145 10.7702 17.7969 10.7206 17.7647 10.6809C17.7325 10.6411 17.6876 10.6135 17.6376 10.6027C15.9728 10.2269 14.4485 9.38703 13.2415 8.18034C12.0344 6.97364 11.1941 5.44959 10.8178 3.78483C10.8071 3.73481 10.7795 3.68999 10.7397 3.65778C10.7 3.62557 10.6504 3.60792 10.5993 3.60773Z" fill="#FCDCC8"/>
<path d="M21.4225 63.1353C21.3713 63.1355 21.3218 63.1531 21.282 63.1854C21.2422 63.2176 21.2147 63.2624 21.2039 63.3124C20.8276 64.9772 19.9873 66.5012 18.7803 67.7079C17.5733 68.9146 16.049 69.7545 14.3841 70.1303C14.3341 70.1411 14.2893 70.1687 14.2571 70.2084C14.2249 70.2482 14.2072 70.2978 14.207 70.3489V70.3508C14.2072 70.4019 14.2249 70.4515 14.2571 70.4913C14.2893 70.531 14.3341 70.5586 14.3841 70.5694C16.0489 70.9456 17.5729 71.7859 18.7796 72.993C19.9863 74.2 20.8262 75.7243 21.202 77.3891C21.2128 77.4392 21.2404 77.484 21.2801 77.5162C21.3199 77.5484 21.3694 77.566 21.4206 77.5662H21.4244C21.4755 77.566 21.5251 77.5484 21.5649 77.5162C21.6046 77.484 21.6322 77.4392 21.643 77.3891C22.0188 75.7243 22.8587 74.2 24.0654 72.993C25.272 71.7859 26.7961 70.9456 28.4609 70.5694C28.5109 70.5586 28.5557 70.531 28.5879 70.4913C28.6201 70.4515 28.6378 70.4019 28.638 70.3508V70.3489C28.6378 70.2978 28.6201 70.2482 28.5879 70.2084C28.5557 70.1687 28.5109 70.1411 28.4609 70.1303C26.796 69.7545 25.2717 68.9146 24.0647 67.7079C22.8577 66.5012 22.0173 64.9772 21.6411 63.3124C21.6303 63.2624 21.6027 63.2176 21.563 63.1854C21.5232 63.1531 21.4737 63.1355 21.4225 63.1353Z" fill="#FCDCC8"/>
<path d="M107.916 91.4267L100.89 70.3508H97.0874L103.701 90.1933H67.8194L61.2052 70.3508H57.4023L64.8079 92.5676C64.9277 92.9267 65.1574 93.2391 65.4645 93.4605C65.7716 93.6819 66.1406 93.801 66.5192 93.801H106.204C106.49 93.801 106.772 93.7331 107.026 93.6028C107.281 93.4726 107.5 93.2837 107.668 93.0519C107.835 92.82 107.944 92.5517 107.987 92.2692C108.031 91.9866 108.006 91.6979 107.916 91.4267Z" fill="#FF8661"/>
<path d="M47.1928 52.5698L51.5735 39.4273L43.8428 35.5619L39.4619 48.7044L47.1928 52.5698Z" fill="#6E6E6E"/>
</svg>
