<svg width="16" height="16" viewBox="0 0 16 16" fill="none" xmlns="http://www.w3.org/2000/svg">
<path d="M11.333 13.6667H4.66634C2.66634 13.6667 1.33301 12.6667 1.33301 10.3334V5.66671C1.33301 3.33337 2.66634 2.33337 4.66634 2.33337H11.333C13.333 2.33337 14.6663 3.33337 14.6663 5.66671V10.3334C14.6663 12.6667 13.333 13.6667 11.333 13.6667Z" stroke="#9E9C9C" stroke-width="1.5" stroke-miterlimit="10" stroke-linecap="round" stroke-linejoin="round"/>
<path d="M8 10C9.10457 10 10 9.10457 10 8C10 6.89543 9.10457 6 8 6C6.89543 6 6 6.89543 6 8C6 9.10457 6.89543 10 8 10Z" stroke="#9E9C9C" stroke-width="1.5" stroke-miterlimit="10" stroke-linecap="round" stroke-linejoin="round"/>
<path d="M12.667 4.66663H10.667" stroke="#9E9C9C" stroke-width="1.5" stroke-miterlimit="10" stroke-linecap="round" stroke-linejoin="round"/>
<path d="M5.33301 11.3334H3.33301" stroke="#9E9C9C" stroke-width="1.5" stroke-miterlimit="10" stroke-linecap="round" stroke-linejoin="round"/>
</svg>
