<svg width="370" height="163" viewBox="0 0 370 163" fill="none" xmlns="http://www.w3.org/2000/svg">
<path fill-rule="evenodd" clip-rule="evenodd" d="M248 257.556C403.192 257.556 529 143.264 529 2.27806C529 -136.351 407.363 -249.171 255.758 -252.905C254.873 -252.929 253.987 -252.948 253.099 -252.963C252.132 -252.988 251.162 -253 250.189 -253C250.185 -253 250.182 -253 250.178 -253C250.064 -253 249.95 -253 249.836 -252.999C249.708 -253 249.58 -253 249.452 -253C249.348 -253 249.245 -253 249.141 -253C249.003 -253 248.865 -253 248.726 -253H248.726L248.489 -253L248.45 -253L248.418 -253L248.381 -253L248.026 -253H248C92.808 -253 -33 -138.708 -33 2.27806C-33 143.264 92.808 257.556 248 257.556ZM231.144 -249.653C230.484 -249.617 229.825 -249.579 229.166 -249.539C197.359 -241.255 174.083 -214.636 174.083 -183.079C174.083 -144.9 208.152 -113.949 250.178 -113.949C292.204 -113.949 326.273 -144.9 326.273 -183.079C326.273 -214.128 303.741 -240.396 272.722 -249.124C271.844 -249.195 270.965 -249.261 270.085 -249.324C288.262 -242.288 301.005 -225.909 301.005 -206.826C301.005 -181.324 278.249 -160.651 250.178 -160.651C222.108 -160.651 199.352 -181.324 199.352 -206.826C199.352 -226.213 212.504 -242.809 231.144 -249.653ZM233.029 -249.75C237.986 -249.989 242.978 -250.11 248 -250.11C254.794 -250.11 261.531 -249.889 268.202 -249.453C287.052 -242.871 300.43 -226.268 300.43 -206.826C300.43 -181.613 277.932 -161.174 250.178 -161.174C222.425 -161.174 199.927 -181.613 199.927 -206.826C199.927 -226.567 213.72 -243.382 233.029 -249.75ZM173.212 -183.079C173.212 -213.368 194.412 -239.159 224.068 -248.874C180.419 -238.397 148.24 -202.279 148.24 -159.332C148.24 -108.186 193.879 -66.7246 250.178 -66.7246C306.478 -66.7246 352.117 -108.186 352.117 -159.332C352.117 -202.155 320.122 -238.19 276.664 -248.783L276.525 -248.796C306.057 -239.022 327.145 -213.288 327.145 -183.079C327.145 -144.463 292.686 -113.158 250.178 -113.158C207.671 -113.158 173.212 -144.463 173.212 -183.079ZM215.174 -247.464C160.847 -233.837 120.952 -188.614 120.952 -134.926C120.952 -70.4532 178.483 -18.188 249.452 -18.188C320.421 -18.188 377.952 -70.4532 377.952 -134.926C377.952 -186.417 341.256 -230.122 290.326 -245.634C327.325 -231.411 353.284 -198.126 353.284 -159.332C353.284 -107.601 307.122 -65.6642 250.178 -65.6642C193.234 -65.6642 147.072 -107.601 147.072 -159.332C147.072 -199.9 175.46 -234.444 215.174 -247.464ZM119.48 -134.926C119.48 -185.132 153.974 -228.02 202.606 -245.098C138.685 -227.215 92.2285 -173.136 92.2285 -109.2C92.2285 -30.6805 162.295 32.9722 248.726 32.9722C335.157 32.9722 405.223 -30.6805 405.223 -109.2C405.223 -170.588 362.396 -222.889 302.403 -242.789C347.792 -224.372 379.424 -183.005 379.424 -134.926C379.424 -69.715 321.233 -16.8513 249.452 -16.8513C177.671 -16.8513 119.48 -69.715 119.48 -134.926ZM182.372 -239.794C114.477 -215.686 66.3848 -155.672 66.3848 -85.4532C66.3848 6.03287 148.022 80.1969 248.726 80.1969C349.43 80.1969 431.067 6.03287 431.067 -85.4532C431.067 -155.671 382.975 -215.685 315.082 -239.793C369.358 -216.995 407.015 -167.092 407.015 -109.2C407.015 -29.7814 336.147 34.6001 248.726 34.6001C161.305 34.6001 90.4365 -29.7814 90.4365 -109.2C90.4365 -167.093 128.095 -216.995 182.372 -239.794ZM452.604 -65.6642C452.604 -139.644 404.86 -203.493 335.837 -233.17C393.765 -204.917 433.155 -149.364 433.155 -85.4532C433.155 7.08041 350.583 82.0937 248.726 82.0937C146.869 82.0937 64.2969 7.08041 64.2969 -85.4532C64.2969 -149.36 103.682 -204.91 161.604 -233.165C92.5875 -203.486 44.8491 -139.64 44.8491 -65.6642C44.8491 36.6273 136.128 119.551 248.727 119.551C361.325 119.551 452.604 36.6273 452.604 -65.6642ZM151.807 -231.061C74.187 -197.948 20.4411 -126.295 20.4411 -43.2366C20.4411 71.301 122.648 164.152 248.726 164.152C374.805 164.152 477.012 71.301 477.012 -43.2366C477.012 -126.293 423.267 -197.947 345.648 -231.06C410.68 -199.544 454.938 -137.299 454.938 -65.6642C454.938 37.7986 362.614 121.672 248.727 121.672C134.839 121.672 42.5146 37.7986 42.5146 -65.6642C42.5146 -137.3 86.7748 -199.545 151.807 -231.061ZM501.411 -20.1495C501.411 -108.375 446.782 -185.008 366.578 -223.657C434.267 -187.088 479.626 -119.974 479.626 -43.2366C479.626 72.6125 376.249 166.527 248.726 166.527C121.204 166.527 17.8271 72.6125 17.8271 -43.2366C17.8271 -124.247 68.3773 -194.532 142.385 -229.478C55.1617 -193.099 -5.41085 -113.05 -5.41085 -20.1495C-5.41085 106.995 108.045 210.065 248 210.065C387.955 210.065 501.411 106.995 501.411 -20.1495ZM117.267 -220.476C29.7385 -177.992 -29.8189 -94.1754 -29.8189 2.27806C-29.8189 141.668 94.5649 254.666 248 254.666C401.435 254.666 525.819 141.668 525.819 2.27806C525.819 -94.1742 466.263 -177.99 378.736 -220.475C453.923 -179.891 504.313 -105.366 504.313 -20.1495C504.313 108.45 389.558 212.701 248 212.701C106.443 212.701 -8.3125 108.45 -8.3125 -20.1495C-8.3125 -105.367 42.0783 -179.893 117.267 -220.476Z" fill="url(#paint0_linear_1427_2046)" fill-opacity="0.3"/>
<defs>
<linearGradient id="paint0_linear_1427_2046" x1="248" y1="-253" x2="248" y2="257.556" gradientUnits="userSpaceOnUse">
<stop stop-color="white" stop-opacity="0.5"/>
<stop offset="1" stop-color="white" stop-opacity="0"/>
</linearGradient>
</defs>
</svg>
