<svg width="117" height="117" viewBox="0 0 117 117" fill="none" xmlns="http://www.w3.org/2000/svg">
<g clip-path="url(#clip0_1425_2039)">
<path d="M87.6113 34.1859V80.4352C87.6113 83.9406 84.7558 86.7948 81.2467 86.7948H35.7209C32.2118 86.7948 29.3563 83.9406 29.3563 80.4352V34.1859L58.4838 32.4986L87.6113 34.1859Z" fill="#FF6B81"/>
<path d="M29.3565 25.3652V80.4352C29.3565 83.9407 32.212 86.7948 35.7211 86.7948H40.29C36.781 86.7948 33.9254 83.9407 33.9254 80.4352V25.3652C33.9254 21.8575 36.781 19.0056 40.29 19.0056H35.7211C32.212 19.0056 29.3565 21.8575 29.3565 25.3652Z" fill="#ED2061"/>
<path d="M29.3563 25.3652V34.1859H87.6113V25.3652C87.6113 21.8575 84.7558 19.0056 81.2467 19.0056H35.7209C32.2118 19.0056 29.3563 21.8575 29.3563 25.3652Z" fill="#90ABBD"/>
<path d="M29.3555 25.3652V34.1859H33.9245V25.3652C33.9245 21.8575 36.78 19.0056 40.2891 19.0056H35.7201C32.211 19.0056 29.3555 21.8575 29.3555 25.3652Z" fill="#56788B"/>
<path d="M72.1465 24.8819H79.146C80.0922 24.8819 80.8594 25.649 80.8594 26.5958C80.8594 27.5425 80.0922 28.3097 79.146 28.3097H72.1465C71.2002 28.3097 70.4331 27.5425 70.4331 26.5958C70.4331 25.649 71.2002 24.8819 72.1465 24.8819Z" fill="#56788B"/>
<path d="M58.4395 24.8819H65.4389C66.3852 24.8819 67.1523 25.649 67.1523 26.5958C67.1523 27.5425 66.3852 28.3097 65.4389 28.3097H58.4395C57.4932 28.3097 56.7261 27.5425 56.7261 26.5958C56.7261 25.649 57.4932 24.8819 58.4395 24.8819Z" fill="#56788B"/>
<path d="M0.0327148 20.1862V85.6145C0.0327148 86.2665 0.561268 86.795 1.21322 86.795H18.4049C21.914 86.795 24.7695 83.9409 24.7695 80.4354V25.3652C24.7695 21.853 21.9222 19.0056 18.4099 19.0056H1.21322C0.561268 19.0056 0.0327148 19.5342 0.0327148 20.1862Z" fill="#FBDF63"/>
<path d="M1.2129 19.0056H4.60156V86.7948H1.2129C0.560947 86.7948 0.0323944 86.2663 0.0323944 85.6143V20.1862C0.0323944 19.5342 0.560947 19.0056 1.2129 19.0056Z" fill="#FFA402"/>
<path d="M0.0327148 20.1862V34.1859H24.7695V25.3652C24.7695 21.853 21.9222 19.0056 18.4099 19.0056H1.21322C0.561268 19.0056 0.0327148 19.5342 0.0327148 20.1862Z" fill="#90ABBD"/>
<path d="M1.21291 19.0056H4.60156V34.1859H0.0326233V20.1862C0.0323949 19.5342 0.560953 19.0056 1.21291 19.0056Z" fill="#56788B"/>
<path d="M9.30474 24.8819H16.3042C17.2505 24.8819 18.0176 25.649 18.0176 26.5958C18.0176 27.5425 17.2505 28.3097 16.3042 28.3097H9.30474C8.35845 28.3097 7.59132 27.5425 7.59132 26.5958C7.59132 25.649 8.35845 24.8819 9.30474 24.8819Z" fill="#56788B"/>
<path d="M92.328 25.3703V80.4352C92.328 83.9407 95.1835 86.7948 98.6926 86.7948H115.768C116.42 86.7948 116.948 86.2663 116.948 85.6143V20.1862C116.948 19.5342 116.42 19.0056 115.768 19.0056H98.6926C95.1776 19.0056 92.328 21.8552 92.328 25.3703Z" fill="#09EAA3"/>
<path d="M92.3272 25.3652V80.4352C92.3272 83.9407 95.1827 86.7948 98.6918 86.7948H103.261C99.7517 86.7948 96.8961 83.9407 96.8961 80.4352V25.3652C96.8961 21.8575 99.7517 19.0056 103.261 19.0056H98.6918C95.1827 19.0056 92.3272 21.8575 92.3272 25.3652Z" fill="#14BB87"/>
<path d="M92.328 25.3703V34.1859H116.948V20.1862C116.948 19.5342 116.42 19.0056 115.768 19.0056H98.6926C95.1776 19.0056 92.328 21.8552 92.328 25.3703Z" fill="#90ABBD"/>
<path d="M92.3272 25.3652V34.1859H96.8961V25.3652C96.8961 21.8575 99.7517 19.0056 103.261 19.0056H98.6918C95.1827 19.0056 92.3272 21.8575 92.3272 25.3652Z" fill="#56788B"/>
<path d="M1.74632 4.86189H115.287C116.233 4.86189 117 5.62902 117 6.57576C117 7.5225 116.233 8.28963 115.287 8.28963H1.74632C0.800034 8.28963 0.0329056 7.5225 0.0329056 6.57576C0.0329056 5.62902 0.800034 4.86189 1.74632 4.86189Z" fill="#90ABBD"/>
<path d="M83.2593 6.57668C83.2593 10.2009 86.214 13.1511 89.8474 13.1511C90.6518 13.1511 91.4219 13.0071 92.1326 12.742C94.6417 11.8143 96.4355 9.39885 96.4355 6.57668C96.4355 3.75223 94.6417 1.33682 92.1326 0.409043C91.4219 0.143965 90.6518 0 89.8474 0C86.214 0 83.2593 2.95014 83.2593 6.57668Z" fill="#FF6B81"/>
<path d="M83.2595 6.57668C83.2595 10.2009 86.2143 13.1511 89.8477 13.1511C90.652 13.1511 91.4221 13.0071 92.1328 12.742C89.6237 11.8143 87.8299 9.39885 87.8299 6.57668C87.8299 3.75223 89.6237 1.33682 92.1328 0.409043C91.4221 0.143965 90.652 0 89.8477 0C86.2143 0 83.2595 2.95014 83.2595 6.57668Z" fill="#ED2061"/>
<path d="M69.5612 117C72.4076 117 74.7334 114.674 74.7334 111.826L74.7311 107.302L74.7243 74.7703C74.722 72.3206 72.892 70.3165 70.6555 70.3165C68.4191 70.3165 66.5914 72.3183 66.5914 74.768L66.596 86.7946C66.5937 84.3449 64.7637 82.3408 62.5272 82.3408C60.2907 82.3408 58.4631 84.3426 58.4631 86.7923C58.4631 84.3426 56.6331 82.3385 54.3966 82.3385C52.1624 82.3385 50.3325 84.338 50.3325 86.7854C50.3302 85.5629 49.8734 84.4523 49.1353 83.6456C48.3997 82.8367 47.3807 82.3362 46.2638 82.3362C44.0296 82.3362 42.1996 84.338 42.1996 86.7877L42.2042 107.252L42.2065 111.817C42.2065 114.665 44.5344 116.993 47.381 116.993L69.5612 117Z" fill="#FDD9B4"/>
<path d="M69.5612 117C72.4076 117 74.7334 114.674 74.7334 111.826L74.7311 107.302C74.7083 110.129 72.3918 112.43 69.5612 112.43L47.3808 112.423C44.5344 112.423 42.2063 110.094 42.2063 107.247L42.204 107.252L42.2063 111.817C42.2063 114.665 44.5342 116.993 47.3808 116.993L69.5612 117Z" fill="#FAB684"/>
<path d="M48.3649 54.2745L63.6241 45.0985C63.9943 44.8759 64.4552 44.87 64.8304 45.0822C65.2063 45.2948 65.4385 45.6931 65.4385 46.1247V64.4768C65.4385 64.9083 65.2063 65.3066 64.8304 65.5193C64.6476 65.6226 64.4442 65.6745 64.2411 65.6745C64.0274 65.6745 63.8137 65.6171 63.6241 65.5033L48.3649 56.3273C48.0048 56.1106 47.7845 55.7213 47.7845 55.301C47.7845 54.8808 48.0046 54.4912 48.3649 54.2745Z" fill="white"/>
<path d="M84.2178 100.622H112.57L108.468 96.5279C107.798 95.8593 107.796 94.7741 108.465 94.1043C109.133 93.4341 110.218 93.4329 110.888 94.1013L115.432 98.6358C116.422 99.6239 116.967 100.938 116.967 102.336C116.967 103.733 116.421 105.047 115.431 106.035L110.888 110.57C110.553 110.903 110.115 111.07 109.678 111.07C109.238 111.07 108.799 110.902 108.465 110.567C107.796 109.897 107.798 108.811 108.468 108.143L112.57 104.049H84.2178C83.2715 104.049 82.5044 103.282 82.5044 102.335C82.5044 101.389 83.2715 100.622 84.2178 100.622Z" fill="#90ABBD"/>
<path d="M6.07844 94.1005C6.74845 93.4316 7.83321 93.433 8.50139 94.1034C9.16957 94.7734 9.16843 95.8586 8.49842 96.5271L4.39657 100.621H32.7485C33.6948 100.621 34.4619 101.388 34.4619 102.335C34.4619 103.281 33.6948 104.048 32.7485 104.048H4.39657L8.49865 108.142C9.16866 108.811 9.1698 109.896 8.50162 110.566C8.16684 110.901 7.72787 111.069 7.28866 111.069C6.85083 111.069 6.41299 110.902 6.07867 110.569L1.53486 106.034C0.544933 105.046 -0.000305176 103.733 -0.000534058 102.335C-0.000762939 100.937 0.544704 99.623 1.53486 98.6349L6.07844 94.1005Z" fill="#90ABBD"/>
</g>
<defs>
<clipPath id="clip0_1425_2039">
<rect width="117" height="117" fill="white" transform="matrix(-1 0 0 1 117 0)"/>
</clipPath>
</defs>
</svg>
