<svg width="16" height="16" viewBox="0 0 16 16" fill="none" xmlns="http://www.w3.org/2000/svg">
<path d="M8.43997 1.6788L8.41997 1.72546L6.48664 6.21213H4.58664C4.13331 6.21213 3.69997 6.30546 3.30664 6.47213L4.47331 3.68546L4.49997 3.6188L4.54664 3.51213C4.55997 3.47213 4.57331 3.43213 4.59331 3.3988C5.46664 1.3788 6.45331 0.918798 8.43997 1.6788Z" stroke="#363535" stroke-width="1.5" stroke-linecap="round" stroke-linejoin="round"/>
<path d="M12.033 6.34538C11.733 6.25205 11.413 6.21204 11.093 6.21204H6.48633L8.41966 1.72538L8.43966 1.67871C8.53966 1.71204 8.63299 1.75871 8.73299 1.79871L10.2063 2.41871C11.0263 2.75871 11.5997 3.11204 11.9463 3.53871C12.013 3.61871 12.0663 3.69204 12.113 3.77871C12.173 3.87204 12.2197 3.96538 12.2463 4.06538C12.273 4.12538 12.293 4.18538 12.3063 4.23871C12.4863 4.79871 12.3797 5.48538 12.033 6.34538Z" stroke="#363535" stroke-width="1.5" stroke-linecap="round" stroke-linejoin="round"/>
<path d="M14.3475 9.46561V10.7656C14.3475 10.8989 14.3408 11.0323 14.3342 11.1656C14.2075 13.4923 12.9075 14.6656 10.4408 14.6656H5.24082C5.08082 14.6656 4.92082 14.6523 4.76749 14.6323C2.64749 14.4923 1.51415 13.3589 1.37415 11.2389C1.35415 11.0856 1.34082 10.9256 1.34082 10.7656V9.46561C1.34082 8.12561 2.15415 6.97228 3.31415 6.47228C3.71415 6.30561 4.14082 6.21228 4.59415 6.21228H11.1008C11.4275 6.21228 11.7475 6.25895 12.0408 6.34561C13.3675 6.75228 14.3475 7.99228 14.3475 9.46561Z" stroke="#363535" stroke-width="1.5" stroke-linecap="round" stroke-linejoin="round"/>
<path d="M4.47301 3.68542L3.30634 6.47209C2.14634 6.97209 1.33301 8.12542 1.33301 9.46542V7.51209C1.33301 5.61876 2.67967 4.03876 4.47301 3.68542Z" stroke="#363535" stroke-width="1.5" stroke-linecap="round" stroke-linejoin="round"/>
<path d="M14.3457 7.51173V9.46506C14.3457 7.9984 13.3724 6.75173 12.0391 6.35173C12.3857 5.48506 12.4857 4.80506 12.3191 4.2384C12.3057 4.1784 12.2857 4.1184 12.2591 4.06506C13.4991 4.70506 14.3457 6.0184 14.3457 7.51173Z" stroke="#363535" stroke-width="1.5" stroke-linecap="round" stroke-linejoin="round"/>
</svg>
